<?xml version="1.0" encoding="UTF-8" standalone="no"?>
<!DOCTYPE svg PUBLIC "-//W3C//DTD SVG 1.1//EN" "http://www.w3.org/Graphics/SVG/1.1/DTD/svg11.dtd">
<svg xmlns="http://www.w3.org/2000/svg" version="1.1" viewBox="0 0 50 50" width="50.0pt" height="50.0pt">
<path d="M 0.00 0.00 L 50.00 0.00 L 50.00 50.00 L 0.00 50.00 L 0.00 0.00 Z" fill="#ffffff" />
<path d="M 3.30 6.27 C 4.20 7.13 5.12 8.00 5.98 8.90 C 6.31 10.37 6.58 11.85 7.01 13.30 C 10.85 12.09 14.75 10.01 17.92 7.53 C 19.25 7.91 20.58 8.29 21.90 8.67 C 21.21 10.29 20.52 11.90 19.83 13.51 C 19.36 13.12 18.90 12.73 18.44 12.34 C 17.52 12.84 16.59 13.34 15.67 13.84 C 16.13 14.75 16.59 15.67 17.05 16.58 C 19.66 14.95 22.24 13.27 24.82 11.59 C 27.43 13.30 30.05 14.99 32.69 16.64 C 33.15 15.70 33.61 14.77 34.08 13.83 C 33.31 13.40 32.53 12.97 31.76 12.54 C 31.01 12.68 30.26 12.81 29.50 12.95 C 28.93 11.51 28.35 10.07 27.77 8.62 C 29.17 8.24 30.58 7.86 31.99 7.49 C 34.90 9.94 39.11 12.74 42.97 12.99 C 43.22 11.62 43.42 10.24 43.57 8.85 C 44.46 7.99 45.37 7.13 46.27 6.28 C 47.53 10.31 48.78 14.59 46.63 18.57 C 44.63 22.07 40.99 23.20 37.52 24.73 C 37.53 23.55 37.54 22.37 37.55 21.19 C 38.67 19.90 39.78 18.61 40.87 17.29 C 39.22 16.40 37.57 15.54 35.92 14.67 C 35.42 15.65 34.93 16.64 34.44 17.62 C 35.42 18.02 36.40 18.43 37.37 18.83 C 36.83 22.88 36.45 27.17 35.18 31.06 C 34.05 34.57 30.87 37.23 28.37 39.81 C 28.98 41.60 29.58 43.39 30.14 45.20 C 29.02 44.01 27.94 42.81 26.86 41.59 C 25.45 41.64 24.04 41.65 22.63 41.64 C 21.65 42.93 20.66 44.22 19.65 45.48 C 20.13 43.53 20.66 41.59 21.21 39.66 C 18.68 37.08 15.36 34.35 14.37 30.76 C 13.18 26.93 12.78 22.77 12.33 18.80 C 13.27 18.42 14.21 18.05 15.15 17.67 C 14.68 16.67 14.21 15.68 13.74 14.68 C 12.03 15.60 10.31 16.51 8.62 17.48 C 9.71 18.55 10.82 19.61 11.95 20.64 C 12.06 21.97 12.17 23.29 12.27 24.62 C 8.95 23.28 5.83 22.34 3.55 19.38 C 1.19 16.34 1.56 12.82 2.37 9.29 C 2.67 8.28 2.98 7.28 3.30 6.27 Z" fill="#b71c1c" />
<path d="M 27.54 18.90 C 29.09 19.09 29.65 20.48 29.79 21.86 C 29.69 23.80 27.54 24.82 26.26 26.04 C 28.01 28.25 29.77 30.45 31.59 32.61 C 30.51 32.56 29.44 32.50 28.36 32.45 C 26.83 30.34 25.30 28.23 23.79 26.09 C 23.31 26.32 22.82 26.54 22.33 26.76 C 22.42 28.27 22.51 29.77 22.59 31.28 C 23.38 31.68 24.17 32.09 24.96 32.50 C 22.67 32.51 20.38 32.52 18.10 32.53 C 18.89 32.07 19.69 31.61 20.48 31.15 C 20.44 27.55 20.81 23.77 20.20 20.22 L 18.03 18.68 C 21.19 18.82 24.40 18.55 27.54 18.90 Z" fill="#ffffff" />
<path d="M 22.55 19.69 C 23.82 19.70 25.10 19.71 26.37 19.73 C 26.97 20.78 27.36 21.88 27.55 23.01 C 26.26 24.81 24.38 24.77 22.43 25.42 C 22.47 23.51 22.51 21.60 22.55 19.69 Z" fill="#b71c1c" />
</svg>