<?xml version="1.0" encoding="UTF-8" standalone="no"?>
<!DOCTYPE svg PUBLIC "-//W3C//DTD SVG 1.1//EN" "http://www.w3.org/Graphics/SVG/1.1/DTD/svg11.dtd">
<svg xmlns="http://www.w3.org/2000/svg" version="1.1" viewBox="0 0 24 64" width="24.0pt" height="64.0pt">
<path d="M 0.00 0.00 L 24.00 0.00 L 24.00 17.11 C 22.27 18.69 20.61 20.31 18.98 21.99 C 17.70 20.79 16.41 19.61 15.10 18.44 C 14.67 20.10 14.38 21.69 14.29 23.40 C 13.61 22.89 12.93 22.38 12.24 21.87 C 10.73 22.64 9.20 23.40 7.68 24.15 C 8.65 22.96 9.63 21.78 10.62 20.60 C 9.80 19.81 8.98 19.03 8.16 18.24 C 7.22 19.41 6.28 20.57 5.36 21.74 C 3.74 20.05 2.09 18.51 0.00 17.39 L 0.00 0.00 Z" fill="#ffffff" />
<path d="M 0.00 17.39 C 2.09 18.51 3.74 20.05 5.36 21.74 C 6.28 20.57 7.22 19.41 8.16 18.24 C 8.98 19.03 9.80 19.81 10.62 20.60 C 9.63 21.78 8.65 22.96 7.68 24.15 C 9.20 23.40 10.73 22.64 12.24 21.87 C 12.93 22.38 13.61 22.89 14.29 23.40 C 14.38 21.69 14.67 20.10 15.10 18.44 C 16.41 19.61 17.70 20.79 18.98 21.99 C 20.61 20.31 22.27 18.69 24.00 17.11 L 24.00 21.83 C 23.11 22.78 22.20 23.71 21.29 24.63 C 22.20 25.66 23.11 26.67 24.00 27.70 L 24.00 27.79 C 23.34 28.27 22.68 28.75 22.02 29.23 C 21.49 31.62 20.90 33.99 20.30 36.36 C 21.56 37.62 22.82 38.87 24.00 40.21 L 24.00 44.67 C 21.95 43.38 20.05 41.92 18.19 40.37 C 16.38 41.97 14.39 44.37 11.99 44.99 C 9.71 44.14 7.98 41.73 6.10 40.22 C 4.06 41.72 2.05 43.28 0.00 44.77 L 0.00 40.71 C 1.29 39.22 2.66 37.81 4.01 36.38 C 3.51 33.99 3.16 31.60 2.87 29.18 C 1.91 28.90 0.96 28.63 0.00 28.35 L 0.00 26.17 C 1.13 25.61 2.21 25.08 3.10 24.16 C 2.21 23.27 1.13 22.72 0.00 22.21 L 0.00 17.39 Z" fill="#585858" />
<path d="M 0.00 22.21 C 1.13 22.72 2.21 23.27 3.10 24.16 C 2.21 25.08 1.13 25.61 0.00 26.17 L 0.00 22.21 Z" fill="#ffffff" />
<path d="M 24.00 21.83 L 24.00 27.70 C 23.11 26.67 22.20 25.66 21.29 24.63 C 22.20 23.71 23.11 22.78 24.00 21.83 Z" fill="#ffffff" />
<path d="M 0.00 28.35 C 0.96 28.63 1.91 28.90 2.87 29.18 C 3.16 31.60 3.51 33.99 4.01 36.38 C 2.66 37.81 1.29 39.22 0.00 40.71 L 0.00 28.35 Z" fill="#ffffff" />
<path d="M 24.00 27.79 L 24.00 40.21 C 22.82 38.87 21.56 37.62 20.30 36.36 C 20.90 33.99 21.49 31.62 22.02 29.23 C 22.68 28.75 23.34 28.27 24.00 27.79 Z" fill="#ffffff" />
<path d="M 6.10 40.22 C 7.98 41.73 9.71 44.14 11.99 44.99 C 14.39 44.37 16.38 41.97 18.19 40.37 C 20.05 41.92 21.95 43.38 24.00 44.67 L 24.00 64.00 L 0.00 64.00 L 0.00 44.77 C 2.05 43.28 4.06 41.72 6.10 40.22 Z" fill="#ffffff" />
</svg>